<svg width="50" height="50" viewBox="0 0 50 50" fill="none" xmlns="http://www.w3.org/2000/svg">
<g clip-path="url(#clip0_367_3)">
<path d="M15 4.28H14V5.28H15V4.28Z" fill="white" fill-opacity="0.760784"/>
<path d="M16 4.3H15V5.3H16V4.3Z" fill="white" fill-opacity="0.8"/>
<path d="M17 4.32H16V5.32H17V4.32Z" fill="white" fill-opacity="0.0862745"/>
<path d="M15 5.28H14V6.28H15V5.28Z" fill="white" fill-opacity="0.792157"/>
<path d="M16 5.3H15V6.3H16V5.3Z" fill="white"/>
<path d="M17 5.32H16V6.32H17V5.32Z" fill="white" fill-opacity="0.827451"/>
<path d="M18 5.34H17V6.34H18V5.34Z" fill="white" fill-opacity="0.0862745"/>
<path d="M15 6.28H14V7.28H15V6.28Z" fill="white" fill-opacity="0.0823529"/>
<path d="M16 6.3H15V7.3H16V6.3Z" fill="white" fill-opacity="0.823529"/>
<path d="M17 6.32H16V7.32H17V6.32Z" fill="white"/>
<path d="M18 6.34H17V7.34H18V6.34Z" fill="white" fill-opacity="0.843137"/>
<path d="M19 6.36H18V7.36H19V6.36Z" fill="white" fill-opacity="0.0980392"/>
<path d="M16 7.3H15V8.3H16V7.3Z" fill="white" fill-opacity="0.0823529"/>
<path d="M17 7.32H16V8.32H17V7.32Z" fill="white" fill-opacity="0.823529"/>
<path d="M18 7.34H17V8.34H18V7.34Z" fill="white"/>
<path d="M19 7.36H18V8.36H19V7.36Z" fill="white" fill-opacity="0.843137"/>
<path d="M20 7.38H19V8.38H20V7.38Z" fill="white" fill-opacity="0.0980392"/>
<path d="M17 8.32H16V9.32H17V8.32Z" fill="white" fill-opacity="0.0823529"/>
<path d="M18 8.34H17V9.34H18V8.34Z" fill="white" fill-opacity="0.823529"/>
<path d="M19 8.36H18V9.36H19V8.36Z" fill="white"/>
<path d="M20 8.38H19V9.38H20V8.38Z" fill="white" fill-opacity="0.843137"/>
<path d="M21 8.4H20V9.4H21V8.4Z" fill="white" fill-opacity="0.0980392"/>
<path d="M18 9.34H17V10.34H18V9.34Z" fill="white" fill-opacity="0.0823529"/>
<path d="M19 9.36H18V10.36H19V9.36Z" fill="white" fill-opacity="0.823529"/>
<path d="M20 9.38H19V10.38H20V9.38Z" fill="white"/>
<path d="M21 9.4H20V10.4H21V9.4Z" fill="white" fill-opacity="0.843137"/>
<path d="M22 9.42H21V10.42H22V9.42Z" fill="white" fill-opacity="0.0980392"/>
<path d="M19 10.36H18V11.36H19V10.36Z" fill="white" fill-opacity="0.0823529"/>
<path d="M20 10.38H19V11.38H20V10.38Z" fill="white" fill-opacity="0.823529"/>
<path d="M21 10.4H20V11.4H21V10.4Z" fill="white"/>
<path d="M22 10.42H21V11.42H22V10.42Z" fill="white" fill-opacity="0.843137"/>
<path d="M23 10.44H22V11.44H23V10.44Z" fill="white" fill-opacity="0.0980392"/>
<path d="M20 11.38H19V12.38H20V11.38Z" fill="white" fill-opacity="0.0823529"/>
<path d="M21 11.4H20V12.4H21V11.4Z" fill="white" fill-opacity="0.823529"/>
<path d="M22 11.42H21V12.42H22V11.42Z" fill="white"/>
<path d="M23 11.44H22V12.44H23V11.44Z" fill="white" fill-opacity="0.843137"/>
<path d="M24 11.46H23V12.46H24V11.46Z" fill="white" fill-opacity="0.0980392"/>
<path d="M21 12.4H20V13.4H21V12.4Z" fill="white" fill-opacity="0.0823529"/>
<path d="M22 12.42H21V13.42H22V12.42Z" fill="white" fill-opacity="0.823529"/>
<path d="M23 12.44H22V13.44H23V12.44Z" fill="white"/>
<path d="M24 12.46H23V13.46H24V12.46Z" fill="white" fill-opacity="0.843137"/>
<path d="M25 12.48H24V13.48H25V12.48Z" fill="white" fill-opacity="0.0980392"/>
<path d="M22 13.42H21V14.42H22V13.42Z" fill="white" fill-opacity="0.0823529"/>
<path d="M23 13.44H22V14.44H23V13.44Z" fill="white" fill-opacity="0.823529"/>
<path d="M24 13.46H23V14.46H24V13.46Z" fill="white"/>
<path d="M25 13.48H24V14.48H25V13.48Z" fill="white" fill-opacity="0.843137"/>
<path d="M26 13.5H25V14.5H26V13.5Z" fill="white" fill-opacity="0.0980392"/>
<path d="M23 14.44H22V15.44H23V14.44Z" fill="white" fill-opacity="0.0823529"/>
<path d="M24 14.46H23V15.46H24V14.46Z" fill="white" fill-opacity="0.823529"/>
<path d="M25 14.48H24V15.48H25V14.48Z" fill="white"/>
<path d="M26 14.5H25V15.5H26V14.5Z" fill="white" fill-opacity="0.843137"/>
<path d="M27 14.52H26V15.52H27V14.52Z" fill="white" fill-opacity="0.0980392"/>
<path d="M24 15.46H23V16.46H24V15.46Z" fill="white" fill-opacity="0.0823529"/>
<path d="M25 15.48H24V16.48H25V15.48Z" fill="white" fill-opacity="0.823529"/>
<path d="M26 15.5H25V16.5H26V15.5Z" fill="white"/>
<path d="M27 15.52H26V16.52H27V15.52Z" fill="white" fill-opacity="0.843137"/>
<path d="M28 15.54H27V16.54H28V15.54Z" fill="white" fill-opacity="0.0980392"/>
<path d="M25 16.48H24V17.48H25V16.48Z" fill="white" fill-opacity="0.0823529"/>
<path d="M26 16.5H25V17.5H26V16.5Z" fill="white" fill-opacity="0.823529"/>
<path d="M27 16.52H26V17.52H27V16.52Z" fill="white"/>
<path d="M28 16.54H27V17.54H28V16.54Z" fill="white" fill-opacity="0.843137"/>
<path d="M29 16.56H28V17.56H29V16.56Z" fill="white" fill-opacity="0.0980392"/>
<path d="M26 17.5H25V18.5H26V17.5Z" fill="white" fill-opacity="0.0823529"/>
<path d="M27 17.52H26V18.52H27V17.52Z" fill="white" fill-opacity="0.823529"/>
<path d="M28 17.54H27V18.54H28V17.54Z" fill="white"/>
<path d="M29 17.56H28V18.56H29V17.56Z" fill="white" fill-opacity="0.843137"/>
<path d="M30 17.58H29V18.58H30V17.58Z" fill="white" fill-opacity="0.0980392"/>
<path d="M27 18.52H26V19.52H27V18.52Z" fill="white" fill-opacity="0.0823529"/>
<path d="M28 18.54H27V19.54H28V18.54Z" fill="white" fill-opacity="0.823529"/>
<path d="M29 18.56H28V19.56H29V18.56Z" fill="white"/>
<path d="M30 18.58H29V19.58H30V18.58Z" fill="white" fill-opacity="0.843137"/>
<path d="M31 18.6H30V19.6H31V18.6Z" fill="white" fill-opacity="0.0980392"/>
<path d="M28 19.54H27V20.54H28V19.54Z" fill="white" fill-opacity="0.0823529"/>
<path d="M29 19.56H28V20.56H29V19.56Z" fill="white" fill-opacity="0.823529"/>
<path d="M30 19.58H29V20.58H30V19.58Z" fill="white"/>
<path d="M31 19.6H30V20.6H31V19.6Z" fill="white" fill-opacity="0.843137"/>
<path d="M32 19.62H31V20.62H32V19.62Z" fill="white" fill-opacity="0.0980392"/>
<path d="M29 20.56H28V21.56H29V20.56Z" fill="white" fill-opacity="0.0823529"/>
<path d="M30 20.58H29V21.58H30V20.58Z" fill="white" fill-opacity="0.823529"/>
<path d="M31 20.6H30V21.6H31V20.6Z" fill="white"/>
<path d="M32 20.62H31V21.62H32V20.62Z" fill="white" fill-opacity="0.843137"/>
<path d="M33 20.64H32V21.64H33V20.64Z" fill="white" fill-opacity="0.0980392"/>
<path d="M30 21.58H29V22.58H30V21.58Z" fill="white" fill-opacity="0.0823529"/>
<path d="M31 21.6H30V22.6H31V21.6Z" fill="white" fill-opacity="0.823529"/>
<path d="M32 21.62H31V22.62H32V21.62Z" fill="white"/>
<path d="M33 21.64H32V22.64H33V21.64Z" fill="white" fill-opacity="0.843137"/>
<path d="M34 21.66H33V22.66H34V21.66Z" fill="white" fill-opacity="0.0980392"/>
<path d="M31 22.6H30V23.6H31V22.6Z" fill="white" fill-opacity="0.0823529"/>
<path d="M32 22.62H31V23.62H32V22.62Z" fill="white" fill-opacity="0.823529"/>
<path d="M33 22.64H32V23.64H33V22.64Z" fill="white"/>
<path d="M34 22.66H33V23.66H34V22.66Z" fill="white" fill-opacity="0.843137"/>
<path d="M35 22.68H34V23.68H35V22.68Z" fill="white" fill-opacity="0.0980392"/>
<path d="M32 23.62H31V24.62H32V23.62Z" fill="white" fill-opacity="0.0823529"/>
<path d="M33 23.64H32V24.64H33V23.64Z" fill="white" fill-opacity="0.823529"/>
<path d="M34 23.66H33V24.66H34V23.66Z" fill="white"/>
<path d="M35 23.68H34V24.68H35V23.68Z" fill="white" fill-opacity="0.843137"/>
<path d="M36 23.7H35V24.7H36V23.7Z" fill="white" fill-opacity="0.0980392"/>
<path d="M33 24.64H32V25.64H33V24.64Z" fill="white" fill-opacity="0.0862745"/>
<path d="M34 24.66H33V25.66H34V24.66Z" fill="white" fill-opacity="0.827451"/>
<path d="M35 24.68H34V25.68H35V24.68Z" fill="white"/>
<path d="M36 24.7H35V25.7H36V24.7Z" fill="white" fill-opacity="0.796078"/>
<path d="M33 25.64H32V26.64H33V25.64Z" fill="white" fill-opacity="0.0862745"/>
<path d="M34 25.66H33V26.66H34V25.66Z" fill="white" fill-opacity="0.827451"/>
<path d="M35 25.68H34V26.68H35V25.68Z" fill="white"/>
<path d="M36 25.7H35V26.7H36V25.7Z" fill="white" fill-opacity="0.796078"/>
<path d="M32 26.62H31V27.62H32V26.62Z" fill="white" fill-opacity="0.0823529"/>
<path d="M33 26.64H32V27.64H33V26.64Z" fill="white" fill-opacity="0.823529"/>
<path d="M34 26.66H33V27.66H34V26.66Z" fill="white"/>
<path d="M35 26.68H34V27.68H35V26.68Z" fill="white" fill-opacity="0.843137"/>
<path d="M36 26.7H35V27.7H36V26.7Z" fill="white" fill-opacity="0.0941176"/>
<path d="M31 27.6H30V28.6H31V27.6Z" fill="white" fill-opacity="0.0823529"/>
<path d="M32 27.62H31V28.62H32V27.62Z" fill="white" fill-opacity="0.823529"/>
<path d="M33 27.64H32V28.64H33V27.64Z" fill="white"/>
<path d="M34 27.66H33V28.66H34V27.66Z" fill="white" fill-opacity="0.843137"/>
<path d="M35 27.68H34V28.68H35V27.68Z" fill="white" fill-opacity="0.0941176"/>
<path d="M30 28.58H29V29.58H30V28.58Z" fill="white" fill-opacity="0.0823529"/>
<path d="M31 28.6H30V29.6H31V28.6Z" fill="white" fill-opacity="0.823529"/>
<path d="M32 28.62H31V29.62H32V28.62Z" fill="white"/>
<path d="M33 28.64H32V29.64H33V28.64Z" fill="white" fill-opacity="0.843137"/>
<path d="M34 28.66H33V29.66H34V28.66Z" fill="white" fill-opacity="0.0941176"/>
<path d="M29 29.56H28V30.56H29V29.56Z" fill="white" fill-opacity="0.0823529"/>
<path d="M30 29.58H29V30.58H30V29.58Z" fill="white" fill-opacity="0.823529"/>
<path d="M31 29.6H30V30.6H31V29.6Z" fill="white"/>
<path d="M32 29.62H31V30.62H32V29.62Z" fill="white" fill-opacity="0.843137"/>
<path d="M33 29.64H32V30.64H33V29.64Z" fill="white" fill-opacity="0.0941176"/>
<path d="M28 30.54H27V31.54H28V30.54Z" fill="white" fill-opacity="0.0823529"/>
<path d="M29 30.56H28V31.56H29V30.56Z" fill="white" fill-opacity="0.823529"/>
<path d="M30 30.58H29V31.58H30V30.58Z" fill="white"/>
<path d="M31 30.6H30V31.6H31V30.6Z" fill="white" fill-opacity="0.843137"/>
<path d="M32 30.62H31V31.62H32V30.62Z" fill="white" fill-opacity="0.0941176"/>
<path d="M27 31.52H26V32.52H27V31.52Z" fill="white" fill-opacity="0.0823529"/>
<path d="M28 31.54H27V32.54H28V31.54Z" fill="white" fill-opacity="0.823529"/>
<path d="M29 31.56H28V32.56H29V31.56Z" fill="white"/>
<path d="M30 31.58H29V32.58H30V31.58Z" fill="white" fill-opacity="0.843137"/>
<path d="M31 31.6H30V32.6H31V31.6Z" fill="white" fill-opacity="0.0941176"/>
<path d="M26 32.5H25V33.5H26V32.5Z" fill="white" fill-opacity="0.0823529"/>
<path d="M27 32.52H26V33.52H27V32.52Z" fill="white" fill-opacity="0.823529"/>
<path d="M28 32.54H27V33.54H28V32.54Z" fill="white"/>
<path d="M29 32.56H28V33.56H29V32.56Z" fill="white" fill-opacity="0.843137"/>
<path d="M30 32.58H29V33.58H30V32.58Z" fill="white" fill-opacity="0.0941176"/>
<path d="M25 33.48H24V34.48H25V33.48Z" fill="white" fill-opacity="0.0823529"/>
<path d="M26 33.5H25V34.5H26V33.5Z" fill="white" fill-opacity="0.823529"/>
<path d="M27 33.52H26V34.52H27V33.52Z" fill="white"/>
<path d="M28 33.54H27V34.54H28V33.54Z" fill="white" fill-opacity="0.843137"/>
<path d="M29 33.56H28V34.56H29V33.56Z" fill="white" fill-opacity="0.0941176"/>
<path d="M24 34.46H23V35.46H24V34.46Z" fill="white" fill-opacity="0.0823529"/>
<path d="M25 34.48H24V35.48H25V34.48Z" fill="white" fill-opacity="0.823529"/>
<path d="M26 34.5H25V35.5H26V34.5Z" fill="white"/>
<path d="M27 34.52H26V35.52H27V34.52Z" fill="white" fill-opacity="0.843137"/>
<path d="M28 34.54H27V35.54H28V34.54Z" fill="white" fill-opacity="0.0941176"/>
<path d="M23 35.44H22V36.44H23V35.44Z" fill="white" fill-opacity="0.0823529"/>
<path d="M24 35.46H23V36.46H24V35.46Z" fill="white" fill-opacity="0.823529"/>
<path d="M25 35.48H24V36.48H25V35.48Z" fill="white"/>
<path d="M26 35.5H25V36.5H26V35.5Z" fill="white" fill-opacity="0.843137"/>
<path d="M27 35.52H26V36.52H27V35.52Z" fill="white" fill-opacity="0.0941176"/>
<path d="M22 36.42H21V37.42H22V36.42Z" fill="white" fill-opacity="0.0823529"/>
<path d="M23 36.44H22V37.44H23V36.44Z" fill="white" fill-opacity="0.823529"/>
<path d="M24 36.46H23V37.46H24V36.46Z" fill="white"/>
<path d="M25 36.48H24V37.48H25V36.48Z" fill="white" fill-opacity="0.843137"/>
<path d="M26 36.5H25V37.5H26V36.5Z" fill="white" fill-opacity="0.0941176"/>
<path d="M21 37.4H20V38.4H21V37.4Z" fill="white" fill-opacity="0.0823529"/>
<path d="M22 37.42H21V38.42H22V37.42Z" fill="white" fill-opacity="0.823529"/>
<path d="M23 37.44H22V38.44H23V37.44Z" fill="white"/>
<path d="M24 37.46H23V38.46H24V37.46Z" fill="white" fill-opacity="0.843137"/>
<path d="M25 37.48H24V38.48H25V37.48Z" fill="white" fill-opacity="0.0941176"/>
<path d="M20 38.38H19V39.38H20V38.38Z" fill="white" fill-opacity="0.0823529"/>
<path d="M21 38.4H20V39.4H21V38.4Z" fill="white" fill-opacity="0.823529"/>
<path d="M22 38.42H21V39.42H22V38.42Z" fill="white"/>
<path d="M23 38.44H22V39.44H23V38.44Z" fill="white" fill-opacity="0.843137"/>
<path d="M24 38.46H23V39.46H24V38.46Z" fill="white" fill-opacity="0.0941176"/>
<path d="M19 39.36H18V40.36H19V39.36Z" fill="white" fill-opacity="0.0823529"/>
<path d="M20 39.38H19V40.38H20V39.38Z" fill="white" fill-opacity="0.823529"/>
<path d="M21 39.4H20V40.4H21V39.4Z" fill="white"/>
<path d="M22 39.42H21V40.42H22V39.42Z" fill="white" fill-opacity="0.843137"/>
<path d="M23 39.44H22V40.44H23V39.44Z" fill="white" fill-opacity="0.0941176"/>
<path d="M18 40.34H17V41.34H18V40.34Z" fill="white" fill-opacity="0.0823529"/>
<path d="M19 40.36H18V41.36H19V40.36Z" fill="white" fill-opacity="0.823529"/>
<path d="M20 40.38H19V41.38H20V40.38Z" fill="white"/>
<path d="M21 40.4H20V41.4H21V40.4Z" fill="white" fill-opacity="0.843137"/>
<path d="M22 40.42H21V41.42H22V40.42Z" fill="white" fill-opacity="0.0941176"/>
<path d="M17 41.32H16V42.32H17V41.32Z" fill="white" fill-opacity="0.0823529"/>
<path d="M18 41.34H17V42.34H18V41.34Z" fill="white" fill-opacity="0.823529"/>
<path d="M19 41.36H18V42.36H19V41.36Z" fill="white"/>
<path d="M20 41.38H19V42.38H20V41.38Z" fill="white" fill-opacity="0.843137"/>
<path d="M21 41.4H20V42.4H21V41.4Z" fill="white" fill-opacity="0.0941176"/>
<path d="M16 42.3H15V43.3H16V42.3Z" fill="white" fill-opacity="0.0823529"/>
<path d="M17 42.32H16V43.32H17V42.32Z" fill="white" fill-opacity="0.823529"/>
<path d="M18 42.34H17V43.34H18V42.34Z" fill="white"/>
<path d="M19 42.36H18V43.36H19V42.36Z" fill="white" fill-opacity="0.843137"/>
<path d="M20 42.38H19V43.38H20V42.38Z" fill="white" fill-opacity="0.0941176"/>
<path d="M15 43.28H14V44.28H15V43.28Z" fill="white" fill-opacity="0.0823529"/>
<path d="M16 43.3H15V44.3H16V43.3Z" fill="white" fill-opacity="0.823529"/>
<path d="M17 43.32H16V44.32H17V43.32Z" fill="white"/>
<path d="M18 43.34H17V44.34H18V43.34Z" fill="white" fill-opacity="0.843137"/>
<path d="M19 43.36H18V44.36H19V43.36Z" fill="white" fill-opacity="0.0941176"/>
<path d="M15 44.28H14V45.28H15V44.28Z" fill="white" fill-opacity="0.796078"/>
<path d="M16 44.3H15V45.3H16V44.3Z" fill="white"/>
<path d="M17 44.32H16V45.32H17V44.32Z" fill="white" fill-opacity="0.827451"/>
<path d="M18 44.34H17V45.34H18V44.34Z" fill="white" fill-opacity="0.0862745"/>
<path d="M15 45.28H14V46.28H15V45.28Z" fill="white" fill-opacity="0.780392"/>
<path d="M16 45.3H15V46.3H16V45.3Z" fill="white" fill-opacity="0.8"/>
<path d="M17 45.32H16V46.32H17V45.32Z" fill="white" fill-opacity="0.0862745"/>
</g>
<defs>
<clipPath id="clip0_367_3">
<rect width="50" height="50" fill="white"/>
</clipPath>
</defs>
</svg>
