<?xml version="1.0" standalone="no"?>
<!DOCTYPE svg PUBLIC "-//W3C//DTD SVG 20010904//EN"
 "http://www.w3.org/TR/2001/REC-SVG-20010904/DTD/svg10.dtd">
<svg version="1.0" xmlns="http://www.w3.org/2000/svg"
 width="64.000000pt" height="64.000000pt" viewBox="0 0 64.000000 64.000000"
 preserveAspectRatio="xMidYMid meet">

<g transform="translate(0.000000,64.000000) scale(0.100000,-0.100000)"
fill="#000000" stroke="none">
<path d="M20 440 c0 -36 4 -50 14 -50 24 0 66 -41 66 -64 0 -31 -36 -76 -61
-76 -16 0 -19 -7 -19 -50 l0 -50 88 0 c55 0 92 4 100 12 9 9 15 9 24 0 8 -8
67 -12 200 -12 l188 0 0 50 c0 42 -3 50 -18 50 -26 0 -62 42 -62 71 0 28 37
69 63 69 14 0 17 10 17 50 l0 50 -188 0 c-133 0 -192 -4 -200 -12 -9 -9 -15
-9 -24 0 -8 8 -45 12 -100 12 l-88 0 0 -50z m182 13 c17 -15 19 -15 36 0 16
14 45 17 190 17 l172 0 0 -27 c-1 -20 -10 -34 -33 -48 -61 -39 -61 -111 0
-150 23 -14 32 -28 33 -47 l0 -28 -172 0 c-145 0 -174 3 -190 17 -17 15 -19
15 -36 0 -14 -13 -38 -17 -90 -17 -72 0 -72 0 -72 28 1 19 10 33 33 47 61 39
61 111 0 150 -23 14 -32 28 -33 48 0 27 0 27 72 27 52 0 76 -4 90 -17z"/>
<path d="M210 390 c0 -11 5 -20 10 -20 6 0 10 9 10 20 0 11 -4 20 -10 20 -5 0
-10 -9 -10 -20z"/>
<path d="M324 376 c-10 -26 4 -48 28 -44 33 4 33 52 0 56 -13 2 -25 -3 -28
-12z m36 -16 c0 -5 -4 -10 -10 -10 -5 0 -10 5 -10 10 0 6 5 10 10 10 6 0 10
-4 10 -10z"/>
<path d="M375 330 c-27 -27 -46 -53 -42 -57 8 -7 107 85 107 99 0 17 -18 6
-65 -42z"/>
<path d="M210 320 c0 -11 5 -20 10 -20 6 0 10 9 10 20 0 11 -4 20 -10 20 -5 0
-10 -9 -10 -20z"/>
<path d="M394 306 c-10 -26 4 -48 28 -44 33 4 33 52 0 56 -13 2 -25 -3 -28
-12z m36 -16 c0 -5 -4 -10 -10 -10 -5 0 -10 5 -10 10 0 6 5 10 10 10 6 0 10
-4 10 -10z"/>
<path d="M210 250 c0 -11 5 -20 10 -20 6 0 10 9 10 20 0 11 -4 20 -10 20 -5 0
-10 -9 -10 -20z"/>
</g>
</svg>
